<svg width="89" height="108" viewBox="0 0 89 108" fill="none" xmlns="http://www.w3.org/2000/svg">
<path d="M28.655 63.7853C26.0938 63.2385 22.8011 62.1723 19.5023 60.5221M28.655 63.7853C31.8837 63.7559 36.2583 63.3922 40.954 62.5023M28.655 63.7853L40.954 62.5023M19.5023 60.5221C11.8722 56.7052 4.20914 49.7644 5.48715 38.9013C5.97439 34.7598 7.47211 31.2559 9.55531 28.3184M19.5023 60.5221C20.3604 73.1461 21.5617 99.2522 19.5023 102.684C17.4429 106.117 24.746 106.784 28.655 106.689C29.1851 105.334 29.8297 103.501 30.407 101.54M31.2292 90.3854C32.6525 92.125 31.6986 97.1527 30.407 101.54M40.954 90.3854V99.8242C43.3376 103.447 49.4775 109.091 54.9692 102.684C52.4522 89.6418 53.9204 93.055 54.9692 96.3919C57.448 95.7245 62.9778 93.5889 65.266 90.3854C67.5542 87.182 71.5585 85.9998 73.2747 85.8091C73.0546 83.086 72.6786 79.6711 72.1383 76.0843M62.8158 53.2024C65.0525 51.2589 66.8902 48.9864 68.1262 46.3379C71.8873 38.2784 70.7069 31.4674 68.1262 26.5415M62.8158 53.2024C57.0278 58.2319 48.5686 61.0591 40.954 62.5023M62.8158 53.2024C66.0783 53.3214 68.5395 59.2142 70.2733 66.3595M70.2733 66.3595C71.4644 66.1715 73.9611 65.1369 74.4187 62.5023C74.9908 59.2089 76.4209 49.1981 81.2833 48.9121C85.1732 48.6833 85.1923 48.2447 84.7156 48.054C86.0504 49.0074 88.4339 51.1431 87.2898 52.0583C85.8597 53.2024 89.0059 55.3436 84.7156 58.9229C80.1392 62.5023 78.9951 70.0778 76.7069 71.2219C74.8764 72.1372 72.8984 74.8449 72.1383 76.0843M70.2733 66.3595C71.0323 69.4875 71.6519 72.8555 72.1383 76.0843M9.55531 28.3184C7.15051 20.7865 4.05704 4.86453 10.9216 1.43225C12.8284 2.0043 17.8434 5.83701 22.6486 16.5915L23.5066 17.7554M9.55531 28.3184C13.1797 23.2078 18.5762 19.8118 23.5066 17.7554M23.5066 17.7554C26.3892 16.5531 29.1126 15.8088 31.2292 15.4474C30.3712 14.5893 30.5428 12.8732 38.0938 12.8732C42.7806 12.8732 48.9587 14.4893 54.1111 16.2169M54.1111 16.2169C57.2598 17.2727 60.0255 18.3701 61.8337 19.1657C63.8023 20.5437 66.3108 23.0762 68.1262 26.5415M54.1111 16.2169C59.074 10.812 69.6274 0.574182 72.1383 2.86237C74.6491 5.15055 73.942 11.6337 73.2747 14.5893L68.1262 26.5415M30.407 101.54C32.7786 101.731 37.865 101.769 39.2379 100.396" stroke="black"/>
<ellipse cx="26.3668" cy="36.041" rx="2.28819" ry="4.57637" fill="black"/>
<ellipse cx="46.3885" cy="36.041" rx="2.28819" ry="4.57637" fill="black"/>
<path d="M29.7991 46.6239C31.8012 48.34 37.4073 50.7426 43.8142 46.6239" stroke="black"/>
<path d="M16.0701 37.4712C10.6356 37.5665 0.0527752 38.4436 1.19687 41.1895M16.0701 48.054C12.8285 49.0074 6.11647 52.2872 5.20119 57.7788M59.5456 37.4712C62.9779 35.183 70.7577 31.007 74.4188 32.6088M61.2617 42.9056C66.9822 42.715 78.0227 42.9057 76.421 45.1938" stroke="black"/>
<path d="M17.9865 32.3228C28.2833 30.4922 31.4296 20.5005 31.7156 15.7334C33.241 15.066 33.7177 14.4749 23.4209 17.4496C13.1241 20.4242 7.68964 29.9393 6.25952 34.3249L17.9865 32.3228Z" fill="#C7954A" stroke="black"/>
</svg>
