<svg width="88" height="107" viewBox="0 0 88 107" fill="none" xmlns="http://www.w3.org/2000/svg">
<path d="M28.0974 63.353C25.5362 62.8063 22.2435 61.74 18.9447 60.0898M28.0974 63.353C31.3261 63.3237 35.7007 62.96 40.3964 62.07M28.0974 63.353L40.3964 62.07M18.9447 60.0898C11.3146 56.273 3.65153 49.3321 4.92953 38.469C5.41677 34.3275 6.9145 30.8236 8.99769 27.8862M18.9447 60.0898C19.8027 72.7138 21.004 98.8199 18.9447 102.252C16.8853 105.684 24.1884 106.352 28.0974 106.257C28.6275 104.902 29.2721 103.069 29.8493 101.108M30.6716 89.9532C32.0949 91.6928 31.141 96.7205 29.8493 101.108M40.3964 89.9532V99.392C42.7799 103.015 48.9199 108.659 54.4116 102.252C51.8945 89.2095 53.3628 92.6227 54.4116 95.9597C56.8904 95.2923 62.4202 93.1567 64.7084 89.9532C66.9966 86.7497 71.0009 85.5675 72.717 85.3768C72.497 82.6538 72.121 79.2389 71.5806 75.652M62.2582 52.7702C64.4948 50.8266 66.3326 48.5542 67.5686 45.9056C71.3297 37.8462 70.1493 31.0352 67.5686 26.1092M62.2582 52.7702C56.4702 57.7997 48.0109 60.6268 40.3964 62.07M62.2582 52.7702C65.5207 52.8891 67.9819 58.7819 69.7157 65.9273M69.7157 65.9273C70.9068 65.7393 73.4035 64.7047 73.8611 62.07C74.4332 58.7767 75.8633 48.7659 80.7257 48.4798C84.6156 48.251 84.6347 47.8125 84.158 47.6218C85.4927 48.5752 87.8763 50.7108 86.7322 51.6261C85.3021 52.7702 88.4483 54.9113 84.158 58.4907C79.5816 62.07 78.4375 69.6456 76.1493 70.7896C74.3188 71.7049 72.3408 74.4126 71.5806 75.652M69.7157 65.9273C70.4747 69.0553 71.0942 72.4233 71.5806 75.652M8.99769 27.8862C6.59289 20.3542 3.49943 4.43228 10.364 1C12.2708 1.57205 17.2858 5.40476 22.0909 16.1592L22.949 17.3232M8.99769 27.8862C12.622 22.7756 18.0186 19.3796 22.949 17.3232M22.949 17.3232C25.8316 16.1209 28.5549 15.3765 30.6716 15.0151C29.8135 14.1571 29.9852 12.4409 37.5362 12.4409C42.223 12.4409 48.4011 14.0571 53.5535 15.7847M53.5535 15.7847C56.7022 16.8404 59.4679 17.9378 61.2761 18.7334C63.2447 20.1115 65.7532 22.6439 67.5686 26.1092M53.5535 15.7847C58.5164 10.3797 69.0698 0.141931 71.5806 2.43012C74.0915 4.7183 73.3844 11.2015 72.717 14.1571L67.5686 26.1092M29.8493 101.108C32.2209 101.299 37.3074 101.337 38.6803 99.964" stroke="black"/>
<ellipse cx="25.8092" cy="35.6088" rx="2.28819" ry="4.57637" fill="black"/>
<ellipse cx="45.8309" cy="35.6088" rx="2.28819" ry="4.57637" fill="black"/>
<path d="M29.2415 46.1917C31.2436 47.9078 36.8497 50.3104 43.2566 46.1917" stroke="black"/>
<path d="M15.5125 37.0389C10.078 37.1342 -0.504842 38.0114 0.639251 40.7572M15.5125 47.6218C12.2709 48.5752 5.55885 51.8549 4.64358 57.3465M58.988 37.0389C62.4203 34.7507 70.2001 30.5748 73.8612 32.1765M60.7041 42.4734C66.4246 42.2827 77.4651 42.4734 75.8633 44.7616" stroke="black"/>
<path d="M31.4441 25.598L29.4419 9.00867L14.5687 17.0173L1.41162 13.8711L4.27185 31.8905L16.8569 23.3098L31.4441 25.598Z" fill="#FF0505" stroke="white"/>
</svg>
