<svg width="88" height="107" viewBox="0 0 88 107" fill="none" xmlns="http://www.w3.org/2000/svg">
<path d="M28.5439 63.5015C25.9827 62.9547 22.69 61.8885 19.3912 60.2383M28.5439 63.5015C31.7727 63.4721 36.1472 63.1084 40.8429 62.2184M28.5439 63.5015L40.8429 62.2184M19.3912 60.2383C11.7611 56.4214 4.09806 49.4805 5.37607 38.6175C5.86331 34.4759 7.36103 30.9721 9.44423 28.0346M19.3912 60.2383C20.2493 72.8623 21.4506 98.9684 19.3912 102.401C17.3318 105.833 24.635 106.5 28.5439 106.405C29.074 105.05 29.7187 103.217 30.2959 101.257M31.1182 90.1016C32.5415 91.8412 31.5875 96.8689 30.2959 101.257M40.8429 90.1016V99.5404C43.2265 103.163 49.3664 108.808 54.8581 102.401C52.3411 89.358 53.8093 92.7712 54.8581 96.1081C57.337 95.4407 62.8667 93.3051 65.1549 90.1016C67.4431 86.8982 71.4474 85.7159 73.1636 85.5253C72.9435 82.8022 72.5675 79.3873 72.0272 75.8005M62.7047 52.9186C64.9414 50.9751 66.7792 48.7026 68.0152 46.0541C71.7762 37.9946 70.5959 31.1836 68.0152 26.2576M62.7047 52.9186C56.9167 57.9481 48.4575 60.7752 40.8429 62.2184M62.7047 52.9186C65.9672 53.0375 68.4284 58.9304 70.1622 66.0757M70.1622 66.0757C71.3533 65.8877 73.85 64.8531 74.3077 62.2184C74.8797 58.9251 76.3098 48.9143 81.1722 48.6283C85.0621 48.3995 85.0812 47.9609 84.6045 47.7702C85.9393 48.7236 88.3228 50.8593 87.1787 51.7745C85.7486 52.9186 88.8948 55.0597 84.6045 58.6391C80.0281 62.2184 78.884 69.794 76.5958 70.9381C74.7653 71.8534 72.7873 74.561 72.0272 75.8005M70.1622 66.0757C70.9212 69.2037 71.5408 72.5717 72.0272 75.8005M9.44423 28.0346C7.03942 20.5027 3.94596 4.58072 10.8105 1.14844C12.7173 1.72048 17.7323 5.55319 22.5375 16.3077L23.3955 17.4716M9.44423 28.0346C13.0686 22.924 18.4651 19.528 23.3955 17.4716M23.3955 17.4716C26.2782 16.2693 29.0015 15.525 31.1182 15.1636C30.2601 14.3055 30.4317 12.5894 37.9827 12.5894C42.6695 12.5894 48.8476 14.2055 54 15.9331M54 15.9331C57.1487 16.9889 59.9144 18.0863 61.7226 18.8819C63.6913 20.2599 66.1997 22.7924 68.0152 26.2576M54 15.9331C58.9629 10.5282 69.5163 0.290368 72.0272 2.57855C74.538 4.86674 73.831 11.3499 73.1636 14.3055L68.0152 26.2576M30.2959 101.257C32.6675 101.447 37.7539 101.485 39.1268 100.112" stroke="black"/>
<ellipse cx="26.2557" cy="35.7572" rx="2.28819" ry="4.57637" fill="black"/>
<ellipse cx="46.2774" cy="35.7572" rx="2.28819" ry="4.57637" fill="black"/>
<path d="M29.688 46.3401C31.6902 48.0562 37.2962 50.4588 43.7031 46.3401" stroke="black"/>
<path d="M15.959 37.1873C10.5245 37.2826 -0.0583088 38.1598 1.08578 40.9056M15.959 47.7702C12.7174 48.7236 6.00538 52.0033 5.09011 57.495M59.4345 37.1873C62.8668 34.8991 70.6466 30.7232 74.3077 32.3249M61.1507 42.6218C66.8711 42.4311 77.9116 42.6218 76.3099 44.91" stroke="black"/>
<path d="M54 74.0843L51.9978 57.495L37.1246 65.5036L23.9675 62.3574L26.8278 80.3768L39.4128 71.7962L54 74.0843Z" fill="#FF0505" stroke="white"/>
</svg>
