<svg width="89" height="107" viewBox="0 0 89 107" fill="none" xmlns="http://www.w3.org/2000/svg">
<path d="M28.9763 63.2291C26.4151 62.6824 23.1224 61.6161 19.8236 59.9659M28.9763 63.2291C32.205 63.1998 36.5796 62.8361 41.2753 61.9461M28.9763 63.2291L41.2753 61.9461M19.8236 59.9659C12.1935 56.1491 4.53043 49.2082 5.80844 38.3451C6.29568 34.2036 7.7934 30.6997 9.8766 27.7623M19.8236 59.9659C20.6817 72.5899 21.883 98.696 19.8236 102.128C17.7642 105.561 25.0673 106.228 28.9763 106.133C29.5064 104.778 30.151 102.945 30.7283 100.984M31.5505 89.8293C32.9738 91.5689 32.0199 96.5965 30.7283 100.984M41.2753 89.8293V99.2681C43.6588 102.891 49.7988 108.535 55.2905 102.128C52.7735 89.0856 54.2417 92.4988 55.2905 95.8358C57.7693 95.1684 63.2991 93.0328 65.5873 89.8293C67.8755 86.6258 71.8798 85.4436 73.5959 85.2529C73.3759 82.5299 72.9999 79.115 72.4596 75.5281M63.1371 52.6463C65.3738 50.7027 67.2115 48.4303 68.4475 45.7817C72.2086 37.7223 71.0282 30.9113 68.4475 25.9853M63.1371 52.6463C57.3491 57.6758 48.8899 60.5029 41.2753 61.9461M63.1371 52.6463C66.3996 52.7652 68.8608 58.658 70.5946 65.8034M70.5946 65.8034C71.7857 65.6154 74.2824 64.5808 74.74 61.9461C75.3121 58.6528 76.7422 48.642 81.6046 48.3559C85.4945 48.1271 85.5136 47.6886 85.0369 47.4979C86.3716 48.4513 88.7552 50.5869 87.6111 51.5022C86.181 52.6463 89.3272 54.7874 85.0369 58.3667C80.4605 61.9461 79.3164 69.5217 77.0282 70.6657C75.1977 71.581 73.2197 74.2887 72.4596 75.5281M70.5946 65.8034C71.3536 68.9313 71.9732 72.2994 72.4596 75.5281M9.8766 27.7623C7.4718 20.2303 4.37833 4.30838 11.2429 0.876099C13.1497 1.44814 18.1647 5.28086 22.9698 16.0353L23.8279 17.1993M9.8766 27.7623C13.5009 22.6517 18.8975 19.2557 23.8279 17.1993M23.8279 17.1993C26.7105 15.997 29.4338 15.2526 31.5505 14.8912C30.6925 14.0332 30.8641 12.317 38.4151 12.317C43.1019 12.317 49.28 13.9332 54.4324 15.6608M54.4324 15.6608C57.5811 16.7165 60.3468 17.8139 62.155 18.6095C64.1236 19.9876 66.6321 22.52 68.4475 25.9853M54.4324 15.6608C59.3953 10.2558 69.9487 0.0180292 72.4596 2.30621C74.9704 4.5944 74.2633 11.0776 73.5959 14.0332L68.4475 25.9853M30.7283 100.984C33.0998 101.175 38.1863 101.213 39.5592 99.8401" stroke="black"/>
<ellipse cx="26.6881" cy="35.4849" rx="2.28819" ry="4.57637" fill="black"/>
<ellipse cx="46.7098" cy="35.4849" rx="2.28819" ry="4.57637" fill="black"/>
<path d="M30.1204 46.0678C32.1225 47.7839 37.7286 50.1865 44.1355 46.0678" stroke="black"/>
<path d="M16.3914 36.915C10.9569 37.0103 0.374064 37.8875 1.51816 40.6333M16.3914 47.4979C13.1498 48.4513 6.43776 51.731 5.52248 57.2226M59.8669 36.915C63.2992 34.6268 71.079 30.4509 74.7401 32.0526M61.583 42.3495C67.3035 42.1588 78.344 42.3495 76.7423 44.6377" stroke="black"/>
<path d="M22 17C24.5 14.5 24.5 14.5 25.5 12C26 10.75 25.8165 11.0038 27.4561 6.50192C29.0956 2 33 1.00189 39.928 1.00189C43.8909 1.00189 44.4592 1.64117 50.8202 8.79767L51 9C55 13.5 55 13.5 59 16C61.8443 17.7777 71 24.5 78.0822 27.3614H2C8.86456 26.5986 19.4417 19.5583 22 17Z" fill="black" stroke="black"/>
</svg>
