<svg width="89" height="107" viewBox="0 0 89 107" fill="none" xmlns="http://www.w3.org/2000/svg">
<path d="M28.6592 63.2292C26.0979 62.6824 22.8053 61.6162 19.5064 59.966M28.6592 63.2292C31.8879 63.1998 36.2624 62.8361 40.9582 61.9461M28.6592 63.2292L40.9582 61.9461M19.5064 59.966C11.8764 56.1491 4.21329 49.2082 5.4913 38.3452C5.97854 34.2036 7.47627 30.6998 9.55946 27.7623M19.5064 59.966C20.3645 72.59 21.5658 98.696 19.5064 102.128C17.4471 105.561 24.7502 106.228 28.6592 106.133C29.1892 104.778 29.8339 102.945 30.4111 100.984M31.2334 89.8293C32.6567 91.5689 31.7027 96.5966 30.4111 100.984M40.9582 89.8293V99.2681C43.3417 102.891 49.4817 108.535 54.9733 102.128C52.4563 89.0857 53.9246 92.4989 54.9733 95.8358C57.4522 95.1684 62.982 93.0328 65.2702 89.8293C67.5583 86.6259 71.5627 85.4436 73.2788 85.253C73.0587 82.5299 72.6828 79.115 72.1424 75.5282M62.8199 52.6463C65.0566 50.7028 66.8944 48.4303 68.1304 45.7818C71.8915 37.7223 70.7111 30.9113 68.1304 25.9853M62.8199 52.6463C57.0319 57.6758 48.5727 60.5029 40.9582 61.9461M62.8199 52.6463C66.0824 52.7652 68.5436 58.658 70.2774 65.8034M70.2774 65.8034C71.4686 65.6154 73.9653 64.5808 74.4229 61.9461C74.9949 58.6528 76.4251 48.642 81.2875 48.356C85.1774 48.1272 85.1964 47.6886 84.7197 47.4979C86.0545 48.4513 88.438 50.587 87.2939 51.5022C85.8638 52.6463 89.0101 54.7874 84.7197 58.3668C80.1434 61.9461 78.9993 69.5217 76.7111 70.6658C74.8805 71.581 72.9026 74.2887 72.1424 75.5282M70.2774 65.8034C71.0364 68.9314 71.656 72.2994 72.1424 75.5282M9.55946 27.7623C7.15466 20.2304 4.06119 4.30841 10.9258 0.876129C12.8326 1.44818 17.8475 5.28089 22.6527 16.0354L23.5108 17.1993M9.55946 27.7623C13.1838 22.6517 18.5803 19.2557 23.5108 17.1993M23.5108 17.1993C26.3934 15.997 29.1167 15.2526 31.2334 14.8913C30.3753 14.0332 30.5469 12.3171 38.098 12.3171C42.7848 12.3171 48.9628 13.9332 54.1152 15.6608M54.1152 15.6608C57.264 16.7166 60.0297 17.814 61.8379 18.6096C63.8065 19.9876 66.3149 22.52 68.1304 25.9853M54.1152 15.6608C59.0781 10.2559 69.6316 0.0180597 72.1424 2.30624C74.6533 4.59443 73.9462 11.0776 73.2788 14.0332L68.1304 25.9853M30.4111 100.984C32.7827 101.175 37.8691 101.213 39.242 99.8401" stroke="black"/>
<ellipse cx="26.3709" cy="35.4849" rx="2.28819" ry="4.57637" fill="black"/>
<ellipse cx="46.3927" cy="35.4849" rx="2.28819" ry="4.57637" fill="black"/>
<path d="M29.8032 46.0678C31.8054 47.7839 37.4114 50.1865 43.8184 46.0678" stroke="black"/>
<path d="M16.0742 36.915C10.6398 37.0103 0.0569256 37.8875 1.20102 40.6333M16.0742 47.4979C12.8326 48.4513 6.12062 51.731 5.20534 57.2226M59.5497 36.915C62.982 34.6268 70.7619 30.4509 74.423 32.0526M61.2659 42.3495C66.9863 42.1588 78.0268 42.3495 76.4251 44.6377" stroke="black"/>
<path d="M21.0098 70.8155C23.7079 72.974 31.8619 73.2772 34.7889 71.3258" stroke="black" stroke-linecap="round"/>
<path d="M37.8511 67.2431C35.1874 67.5391 33.793 72.8568 36.8304 72.8568C40.0069 72.8568 41.1095 69.3239 39.3821 66.7328" stroke="black" stroke-linecap="round"/>
<path d="M39.8926 70.3051C43.775 69.9169 48.72 67.92 52.1407 66.109C55.6285 64.2625 60.4496 62.3632 62.3475 58.5673" stroke="black" stroke-linecap="round"/>
</svg>
