<svg width="88" height="107" viewBox="0 0 88 107" fill="none" xmlns="http://www.w3.org/2000/svg">
<path d="M28.5439 63.353C25.9827 62.8063 22.69 61.74 19.3912 60.0898M28.5439 63.353C31.7727 63.3237 36.1472 62.96 40.8429 62.07M28.5439 63.353L40.8429 62.07M19.3912 60.0898C11.7611 56.273 4.09806 49.3321 5.37607 38.469C5.86331 34.3275 7.36103 30.8236 9.44423 27.8862M19.3912 60.0898C20.2493 72.7138 21.4506 98.8199 19.3912 102.252C17.3318 105.684 24.635 106.352 28.5439 106.257C29.074 104.902 29.7187 103.069 30.2959 101.108M31.1182 89.9532C32.5415 91.6928 31.5875 96.7205 30.2959 101.108M40.8429 89.9532V99.392C43.2265 103.015 49.3664 108.659 54.8581 102.252C52.3411 89.2095 53.8093 92.6227 54.8581 95.9597C57.337 95.2923 62.8667 93.1567 65.1549 89.9532C67.4431 86.7497 71.4474 85.5675 73.1636 85.3768C72.9435 82.6538 72.5675 79.2389 72.0272 75.652M62.7047 52.7702C64.9414 50.8266 66.7792 48.5542 68.0152 45.9056C71.7762 37.8462 70.5959 31.0352 68.0152 26.1092M62.7047 52.7702C56.9167 57.7997 48.4575 60.6268 40.8429 62.07M62.7047 52.7702C65.9672 52.8891 68.4284 58.7819 70.1622 65.9273M70.1622 65.9273C71.3533 65.7393 73.85 64.7047 74.3077 62.07C74.8797 58.7767 76.3098 48.7659 81.1722 48.4798C85.0621 48.251 85.0812 47.8125 84.6045 47.6218C85.9393 48.5752 88.3228 50.7108 87.1787 51.6261C85.7486 52.7702 88.8948 54.9113 84.6045 58.4907C80.0281 62.07 78.884 69.6456 76.5958 70.7896C74.7653 71.7049 72.7873 74.4126 72.0272 75.652M70.1622 65.9273C70.9212 69.0553 71.5408 72.4233 72.0272 75.652M9.44423 27.8862C7.03942 20.3542 3.94596 4.43228 10.8105 1C12.7173 1.57205 17.7323 5.40476 22.5375 16.1592L23.3955 17.3232M9.44423 27.8862C13.0686 22.7756 18.4651 19.3796 23.3955 17.3232M23.3955 17.3232C26.2782 16.1209 29.0015 15.3765 31.1182 15.0151C30.2601 14.1571 30.4317 12.4409 37.9827 12.4409C42.6695 12.4409 48.8476 14.0571 54 15.7847M54 15.7847C57.1487 16.8404 59.9144 17.9378 61.7226 18.7334C63.6913 20.1115 66.1997 22.6439 68.0152 26.1092M54 15.7847C58.9629 10.3797 69.5163 0.141931 72.0272 2.43012C74.538 4.7183 73.831 11.2015 73.1636 14.1571L68.0152 26.1092M30.2959 101.108C32.6675 101.299 37.7539 101.337 39.1268 99.964" stroke="black"/>
<ellipse cx="26.2557" cy="35.6088" rx="2.28819" ry="4.57637" fill="black"/>
<ellipse cx="46.2774" cy="35.6088" rx="2.28819" ry="4.57637" fill="black"/>
<path d="M29.688 46.1917C31.6902 47.9078 37.2962 50.3104 43.7031 46.1917" stroke="black"/>
<path d="M15.959 37.0389C10.5245 37.1342 -0.0583088 38.0114 1.08578 40.7572M15.959 47.6218C12.7174 48.5752 6.00538 51.8549 5.09011 57.3465M59.4345 37.0389C62.8668 34.7507 70.6466 30.5748 74.3077 32.1765M61.1507 42.4734C66.8711 42.2827 77.9116 42.4734 76.3099 44.7616" stroke="black"/>
</svg>
