<svg width="89" height="107" viewBox="0 0 89 107" fill="none" xmlns="http://www.w3.org/2000/svg">
<path d="M29.0244 63.353C26.4632 62.8063 23.1705 61.74 19.8717 60.0898M29.0244 63.353C32.2531 63.3237 36.6277 62.96 41.3234 62.07M29.0244 63.353L41.3234 62.07M19.8717 60.0898C12.2416 56.273 4.57853 49.3321 5.85654 38.469C6.34377 34.3275 7.8415 30.8236 9.9247 27.8862M19.8717 60.0898C20.7297 72.7138 21.931 98.8199 19.8717 102.252C17.8123 105.684 25.1154 106.352 29.0244 106.257C29.5545 104.902 30.1991 103.069 30.7763 101.108M31.5986 89.9532C33.0219 91.6928 32.068 96.7205 30.7763 101.108M41.3234 89.9532V99.392C43.7069 103.015 49.8469 108.659 55.3386 102.252C52.8215 89.2095 54.2898 92.6227 55.3386 95.9597C57.8174 95.2923 63.3472 93.1567 65.6354 89.9532C67.9236 86.7497 71.9279 85.5675 73.644 85.3768C73.424 82.6538 73.048 79.2389 72.5077 75.652M63.1852 52.7702C65.4219 50.8266 67.2596 48.5542 68.4956 45.9056C72.2567 37.8462 71.0763 31.0352 68.4956 26.1092M63.1852 52.7702C57.3972 57.7997 48.938 60.6268 41.3234 62.07M63.1852 52.7702C66.4477 52.8891 68.9089 58.7819 70.6427 65.9273M70.6427 65.9273C71.8338 65.7393 74.3305 64.7047 74.7881 62.07C75.3602 58.7767 76.7903 48.7659 81.6527 48.4798C85.5426 48.251 85.5617 47.8125 85.085 47.6218C86.4197 48.5752 88.8033 50.7108 87.6592 51.6261C86.2291 52.7702 89.3753 54.9113 85.085 58.4907C80.5086 62.07 79.3645 69.6456 77.0763 70.7896C75.2458 71.7049 73.2678 74.4126 72.5077 75.652M70.6427 65.9273C71.4017 69.0553 72.0213 72.4233 72.5077 75.652M9.9247 27.8862C7.51989 20.3542 4.42643 4.43228 11.291 1C13.1978 1.57205 18.2128 5.40476 23.0179 16.1592L23.876 17.3232M9.9247 27.8862C13.549 22.7756 18.9456 19.3796 23.876 17.3232M23.876 17.3232C26.7586 16.1209 29.4819 15.3765 31.5986 15.0151C30.7406 14.1571 30.9122 12.4409 38.4632 12.4409C43.15 12.4409 49.3281 14.0571 54.4805 15.7847M54.4805 15.7847C57.6292 16.8404 60.3949 17.9378 62.2031 18.7334C64.1717 20.1115 66.6802 22.6439 68.4956 26.1092M54.4805 15.7847C59.4434 10.3797 69.9968 0.141931 72.5077 2.43012C75.0185 4.7183 74.3114 11.2015 73.644 14.1571L68.4956 26.1092M30.7763 101.108C33.1479 101.299 38.2344 101.337 39.6073 99.964" stroke="black"/>
<ellipse cx="26.7362" cy="35.6088" rx="2.28819" ry="4.57637" fill="black"/>
<ellipse cx="46.7579" cy="35.6088" rx="2.28819" ry="4.57637" fill="black"/>
<path d="M30.1685 46.1917C32.1706 47.9078 37.7767 50.3104 44.1836 46.1917" stroke="black"/>
<path d="M16.4395 37.0389C11.005 37.1342 0.42216 38.0113 1.56625 40.7572M16.4395 47.6217C13.1979 48.5751 6.48585 51.8549 5.57058 57.3465M59.915 37.0389C63.3473 34.7507 71.1271 30.5747 74.7882 32.1765M61.6311 42.4734C67.3516 42.2827 78.3921 42.4734 76.7903 44.7615" stroke="black"/>
<path d="M21.2048 29.01C23.0509 29.01 24.8969 29.01 26.743 29.01C27.2167 29.01 28.9852 28.7463 28.4571 28.7463C27.5554 28.7463 26.5118 28.9073 25.6881 28.5412C25.0078 28.2389 23.8591 28.431 23.1681 28.2335C22.1119 27.9318 21.4384 28.2189 23.0509 28.2189C24.8969 28.2189 26.743 28.2189 28.589 28.2189" stroke="black" stroke-width="3" stroke-linecap="round"/>
<path d="M42.5662 27.164C43.7286 27.164 44.9033 26.9003 45.9945 26.9003C47.2525 26.9003 47.9819 26.6904 49.042 26.3875C49.977 26.1204 49.0881 26.377 48.8368 26.578C48.3768 26.946 47.4854 26.9003 46.9322 26.9003C46.3559 26.9003 45.7796 26.9003 45.2034 26.9003C44.9245 26.9003 43.4441 26.9003 44.4122 26.9003" stroke="black" stroke-width="3" stroke-linecap="round"/>
</svg>
