<svg width="89" height="108" viewBox="0 0 89 108" fill="none" xmlns="http://www.w3.org/2000/svg">
<path d="M28.8179 63.8012C26.2566 63.2544 22.964 62.1882 19.6651 60.538M28.8179 63.8012C32.0466 63.7719 36.4211 63.4082 41.1169 62.5182M28.8179 63.8012L41.1169 62.5182M19.6651 60.538C12.0351 56.7212 4.37198 49.7803 5.64999 38.9172C6.13723 34.7757 7.63496 31.2718 9.71815 28.3344M19.6651 60.538C20.5232 73.162 21.7245 99.2681 19.6651 102.7C17.6058 106.133 24.9089 106.8 28.8179 106.705C29.3479 105.35 29.9926 103.517 30.5698 101.556M31.3921 90.4014C32.8154 92.141 31.8614 97.1686 30.5698 101.556M41.1169 90.4014V99.8401C43.5004 103.463 49.6404 109.107 55.132 102.7C52.615 89.6577 54.0833 93.0709 55.132 96.4079C57.6109 95.7405 63.1407 93.6048 65.4288 90.4014C67.717 87.1979 71.7214 86.0157 73.4375 85.825C73.2174 83.102 72.8414 79.687 72.3011 76.1002M62.9786 53.2184C65.2153 51.2748 67.0531 49.0024 68.2891 46.3538C72.0502 38.2943 70.8698 31.4834 68.2891 26.5574M62.9786 53.2184C57.1906 58.2479 48.7314 61.075 41.1169 62.5182M62.9786 53.2184C66.2411 53.3373 68.7023 59.2301 70.4361 66.3754M70.4361 66.3754C71.6273 66.1875 74.1239 65.1528 74.5816 62.5182C75.1536 59.2249 76.5837 49.214 81.4461 48.928C85.3361 48.6992 85.3551 48.2606 84.8784 48.07C86.2132 49.0234 88.5967 51.159 87.4526 52.0743C86.0225 53.2184 89.1688 55.3595 84.8784 58.9388C80.302 62.5182 79.158 70.0937 76.8698 71.2378C75.0392 72.1531 73.0613 74.8608 72.3011 76.1002M70.4361 66.3754C71.1951 69.5034 71.8147 72.8715 72.3011 76.1002M9.71815 28.3344C7.31335 20.8024 4.21989 4.88046 11.0844 1.44818C12.9913 2.02023 18.0062 5.85294 22.8114 16.6074L23.6695 17.7714M9.71815 28.3344C13.3425 23.2238 18.739 19.8278 23.6695 17.7714M23.6695 17.7714C26.5521 16.5691 29.2754 15.8247 31.3921 15.4633C30.534 14.6052 30.7056 12.8891 38.2566 12.8891C42.9435 12.8891 49.1215 14.5052 54.2739 16.2328M54.2739 16.2328C57.4227 17.2886 60.1884 18.386 61.9966 19.1816C63.9652 20.5597 66.4736 23.0921 68.2891 26.5574M54.2739 16.2328C59.2368 10.8279 69.7903 0.590112 72.3011 2.8783C74.8119 5.16648 74.1049 11.6497 73.4375 14.6052L68.2891 26.5574M30.5698 101.556C32.9414 101.747 38.0278 101.785 39.4007 100.412" stroke="black"/>
<ellipse cx="26.5296" cy="36.057" rx="2.28819" ry="4.57637" fill="black"/>
<ellipse cx="46.5514" cy="36.057" rx="2.28819" ry="4.57637" fill="black"/>
<path d="M29.9619 46.6398C31.9641 48.356 37.5701 50.7586 43.977 46.6398" stroke="black"/>
<path d="M16.2329 37.4871C10.7985 37.5824 0.215617 38.4595 1.35971 41.2054M16.2329 48.0699C12.9913 49.0233 6.27931 52.3031 5.36404 57.7947M59.7084 37.4871C63.1407 35.1989 70.9205 31.0229 74.5816 32.6247M61.4246 42.9215C67.145 42.7309 78.1855 42.9216 76.5838 45.2097" stroke="black"/>
<path d="M36.7575 35.6639C36.6458 36.67 35.1497 37.3962 35.4097 38.4362C35.625 39.2974 36.7575 39.788 36.7575 40.6265" stroke="black" stroke-linecap="round"/>
</svg>
